<svg width="24" height="24" viewBox="0 0 24 24" fill="none" xmlns="http://www.w3.org/2000/svg">
<path d="M19.506 7.96C18.7925 10.7425 17.3445 13.2821 15.3133 15.3133C13.2821 17.3445 10.7425 18.7925 7.96 19.506C5.819 20.051 4 18.21 4 16V15C4 14.448 4.449 14.005 4.998 13.95C5.9084 13.8595 6.80207 13.6445 7.654 13.311L9.174 14.831C11.6489 13.6446 13.6446 11.6489 14.831 9.174L13.311 7.654C13.6448 6.80211 13.8602 5.90844 13.951 4.998C14.005 4.448 14.448 4 15 4H16C18.21 4 20.051 5.819 19.506 7.96Z" stroke="#121113" stroke-width="1.5" stroke-linecap="round" stroke-linejoin="round"/>
</svg>
