<svg width="24" height="24" viewBox="0 0 24 24" fill="none" xmlns="http://www.w3.org/2000/svg">
<path d="M20 12C20 14.1217 19.1571 16.1566 17.6569 17.6569C16.1566 19.1571 14.1217 20 12 20C9.87827 20 7.84344 19.1571 6.34315 17.6569C4.84285 16.1566 4 14.1217 4 12C4 9.87827 4.84285 7.84344 6.34315 6.34315C7.84344 4.84285 9.87827 4 12 4C14.1217 4 16.1566 4.84285 17.6569 6.34315C19.1571 7.84344 20 9.87827 20 12ZM12 22C17.523 22 22 17.523 22 12C22 6.477 17.523 2 12 2C6.477 2 2 6.477 2 12C2 17.523 6.477 22 12 22ZM12.358 9.382C11.386 9.78667 9.44233 10.6243 6.527 11.895C6.053 12.083 5.805 12.267 5.783 12.447C5.745 12.751 6.126 12.871 6.645 13.034L6.863 13.104C7.373 13.27 8.061 13.464 8.418 13.472C8.742 13.4787 9.10333 13.3453 9.502 13.072C12.226 11.232 13.632 10.3023 13.72 10.283C13.783 10.269 13.869 10.251 13.927 10.303C13.986 10.355 13.98 10.453 13.974 10.48C13.936 10.641 12.44 12.032 11.666 12.751C11.4367 12.967 11.209 13.1847 10.983 13.404C10.509 13.861 10.153 14.204 11.003 14.764C11.864 15.332 12.733 15.898 13.573 16.497C13.987 16.793 14.359 17.057 14.819 17.016C15.086 16.991 15.362 16.74 15.502 15.99C15.834 14.22 16.485 10.382 16.635 8.8C16.6437 8.66877 16.638 8.53699 16.618 8.407C16.6062 8.30238 16.5555 8.20602 16.476 8.137C16.356 8.039 16.171 8.019 16.089 8.02C15.713 8.027 15.136 8.227 12.359 9.382" fill="#121113"/>
</svg>
