<svg width="24" height="24" viewBox="0 0 24 24" fill="none" xmlns="http://www.w3.org/2000/svg">
<path d="M12.09 17.9823L12 18.0722L11.901 17.9823C7.626 14.1068 4.8 11.5441 4.8 8.9455C4.8 7.14714 6.15 5.79837 7.95 5.79837C9.336 5.79837 10.686 6.69755 11.163 7.92044H12.837C13.314 6.69755 14.664 5.79837 16.05 5.79837C17.85 5.79837 19.2 7.14714 19.2 8.9455C19.2 11.5441 16.374 14.1068 12.09 17.9823ZM16.05 4C14.484 4 12.981 4.72834 12 5.8703C11.019 4.72834 9.516 4 7.95 4C5.178 4 3 6.16703 3 8.9455C3 12.3354 6.06 15.1139 10.695 19.3131L12 20.5L13.305 19.3131C17.94 15.1139 21 12.3354 21 8.9455C21 6.16703 18.822 4 16.05 4Z" fill="#FFA900"/>
</svg>
