<svg width="24" height="24" viewBox="0 0 24 24" fill="none" xmlns="http://www.w3.org/2000/svg">
<path d="M6.4501 9.23047H17.5501C18.0407 9.23047 18.5113 9.42538 18.8582 9.77232C19.2052 10.1193 19.4001 10.5898 19.4001 11.0805V17.5525C19.3996 18.5334 19.0095 19.474 18.3157 20.1675C17.6219 20.8609 16.6811 21.2505 15.7001 21.2505H8.3001C7.31914 21.2505 6.37834 20.8609 5.68451 20.1675C4.99068 19.474 4.60063 18.5334 4.6001 17.5525V11.0805C4.6001 10.5898 4.79501 10.1193 5.14195 9.77232C5.48889 9.42538 5.95945 9.23047 6.4501 9.23047Z" stroke="#ecf0ff" stroke-width="1.5" stroke-linecap="round" stroke-linejoin="round"/>
<path d="M7.37501 9.23V7.381C7.37356 6.77295 7.49216 6.17059 7.724 5.60847C7.95584 5.04635 8.29637 4.53552 8.72605 4.10529C9.15573 3.67505 9.66611 3.33386 10.2279 3.10129C10.7898 2.86872 11.392 2.74934 12 2.75C12.6078 2.75027 13.2096 2.87027 13.771 3.10317C14.3324 3.33606 14.8424 3.67729 15.2719 4.10734C15.7014 4.5374 16.042 5.04785 16.2741 5.60956C16.5063 6.17126 16.6255 6.77321 16.625 7.381V9.231" stroke="#ecf0ff" stroke-width="1.5" stroke-linecap="round" stroke-linejoin="round"/>
</svg>
