<svg width="24" height="24" viewBox="0 0 24 24" fill="none" xmlns="http://www.w3.org/2000/svg">
<path d="M4 10C4 6.229 4 4.343 5.172 3.172C6.344 2.001 8.229 2 12 2H13.5C17.271 2 19.157 2 20.328 3.172C21.499 4.344 21.5 6.229 21.5 10V14C21.5 17.771 21.5 19.657 20.328 20.828C19.156 21.999 17.271 22 13.5 22H12C8.229 22 6.343 22 5.172 20.828C4.001 19.656 4 17.771 4 14V10Z" stroke="#121113" stroke-width="1.5" stroke-linecap="round" stroke-linejoin="round"/>
<path d="M9.8 11.974C9.373 11.23 9.167 10.623 9.043 10.007C8.859 9.097 9.28 8.207 9.976 7.639C10.271 7.399 10.608 7.481 10.782 7.794L11.175 8.499C11.486 9.057 11.642 9.337 11.611 9.633C11.581 9.929 11.371 10.17 10.951 10.653L9.8 11.974ZM9.8 11.974C10.7001 13.5164 11.9836 14.7999 13.526 15.7M13.526 15.7C14.27 16.127 14.877 16.333 15.493 16.457C16.403 16.641 17.293 16.22 17.861 15.524C18.101 15.229 18.019 14.892 17.706 14.718L17.002 14.325C16.442 14.014 16.163 13.858 15.867 13.889C15.571 13.919 15.33 14.129 14.847 14.549L13.526 15.7ZM5 6H2.5M5 12H2.5M5 18H2.5" stroke="#121113" stroke-width="1.5" stroke-linecap="round" stroke-linejoin="round"/>
</svg>
