<svg width="24" height="24" viewBox="0 0 24 24" fill="none" xmlns="http://www.w3.org/2000/svg">
<path d="M12.0591 16.543V10.984M21.2501 12C21.2517 13.2145 21.0136 14.4173 20.5494 15.5396C20.0852 16.6618 19.4041 17.6815 18.5451 18.54C17.6858 19.3996 16.6654 20.0814 15.5423 20.5464C14.4193 21.0114 13.2156 21.2505 12.0001 21.25C10.6919 21.2529 9.39817 20.9767 8.20515 20.44L4.33815 21.012C4.14615 21.0433 3.9494 21.0274 3.76498 20.9654C3.58057 20.9034 3.41407 20.7974 3.27995 20.6565C3.14583 20.5155 3.04814 20.344 2.99537 20.1568C2.9426 19.9695 2.93635 19.7722 2.97715 19.582L3.51415 15.659C3.00334 14.5072 2.74293 13.26 2.75015 12C2.74859 10.7855 2.98673 9.5827 3.45091 8.46044C3.91508 7.33817 4.59618 6.31855 5.45515 5.46C6.31453 4.60042 7.33491 3.91864 8.45795 3.45364C9.58098 2.98864 10.7846 2.74954 12.0001 2.75C14.4548 2.75016 16.8089 3.72491 18.5451 5.46C19.4037 6.31888 20.0845 7.33856 20.5486 8.46075C21.0128 9.58294 21.2512 10.7856 21.2501 12Z" stroke="#121113" stroke-width="1.5" stroke-linecap="round" stroke-linejoin="round"/>
<path d="M11.9414 7.45703H11.9474" stroke="#121113" stroke-width="2" stroke-linecap="round" stroke-linejoin="round"/>
</svg>
