<svg width="24" height="24" viewBox="0 0 24 24" fill="none" xmlns="http://www.w3.org/2000/svg">
<path d="M11.5 12C13.9853 12 16 9.98528 16 7.5C16 5.01472 13.9853 3 11.5 3C9.01472 3 7 5.01472 7 7.5C7 9.98528 9.01472 12 11.5 12Z" stroke="#ecf0ff" stroke-width="1.5"/>
<path d="M15.7934 13H16.0956C16.7234 13.0002 17.3294 13.2674 17.8 13.7513C18.2705 14.2352 18.5732 14.9026 18.651 15.628L18.9867 18.752C19.0169 19.0334 18.9954 19.3191 18.9235 19.5901C18.8517 19.8611 18.7312 20.1112 18.57 20.3238C18.4088 20.5364 18.2106 20.7066 17.9886 20.8232C17.7666 20.9398 17.5258 21.0001 17.2823 21H5.71771C5.47418 21.0001 5.23342 20.9398 5.01141 20.8232C4.7894 20.7066 4.59123 20.5364 4.43003 20.3238C4.26884 20.1112 4.14831 19.8611 4.07646 19.5901C4.0046 19.3191 3.98306 19.0334 4.01325 18.752L4.34814 15.628C4.42601 14.9022 4.72888 14.2346 5.19979 13.7506C5.6707 13.2667 6.2772 12.9997 6.90526 13H7.20665" stroke="#ecf0ff" stroke-width="2" stroke-linecap="round" stroke-linejoin="round"/>
</svg>
