<svg width="18" height="18" viewBox="0 0 12 13" fill="none" xmlns="http://www.w3.org/2000/svg">
<path d="M12 5C12 7.76142 9.76142 10 7 10C4.23858 10 2 7.76142 2 5C2 2.23858 4.23858 0 7 0C9.76142 0 12 2.23858 12 5ZM2.84367 5C2.84367 7.29548 4.70452 9.15633 7 9.15633C9.29548 9.15633 11.1563 7.29548 11.1563 5C11.1563 2.70452 9.29548 0.843673 7 0.843673C4.70452 0.843673 2.84367 2.70452 2.84367 5Z" fill="#212122"/>
<path d="M0.351816 11.9565C0.167041 12.1617 0.18361 12.4778 0.388823 12.6626C0.594037 12.8474 0.910186 12.8308 1.09496 12.6256L0.351816 11.9565ZM1.09496 12.6256L4.44061 8.90986L3.69747 8.24073L0.351816 11.9565L1.09496 12.6256Z" fill="#212122"/>
</svg>
