<svg width="30" height="30" viewBox="0 0 30 30" fill="none" xmlns="http://www.w3.org/2000/svg">
<path fill-rule="evenodd" clip-rule="evenodd" d="M13.75 21.25C14.7349 21.25 15.7102 21.056 16.6201 20.6791C17.5301 20.3022 18.3569 19.7497 19.0533 19.0533C19.7497 18.3569 20.3022 17.5301 20.6791 16.6201C21.056 15.7102 21.25 14.7349 21.25 13.75C21.25 12.7651 21.056 11.7898 20.6791 10.8799C20.3022 9.96993 19.7497 9.14314 19.0533 8.4467C18.3569 7.75026 17.5301 7.19781 16.6201 6.8209C15.7102 6.44399 14.7349 6.25 13.75 6.25C11.7609 6.25 9.85322 7.04018 8.4467 8.4467C7.04018 9.85322 6.25 11.7609 6.25 13.75C6.25 15.7391 7.04018 17.6468 8.4467 19.0533C9.85322 20.4598 11.7609 21.25 13.75 21.25ZM13.75 23.75C16.4022 23.75 18.9457 22.6964 20.8211 20.8211C22.6964 18.9457 23.75 16.4022 23.75 13.75C23.75 11.0978 22.6964 8.5543 20.8211 6.67893C18.9457 4.80357 16.4022 3.75 13.75 3.75C11.0978 3.75 8.5543 4.80357 6.67893 6.67893C4.80357 8.5543 3.75 11.0978 3.75 13.75C3.75 16.4022 4.80357 18.9457 6.67893 20.8211C8.5543 22.6964 11.0978 23.75 13.75 23.75Z" fill="white"/>
<path fill-rule="evenodd" clip-rule="evenodd" d="M19.1497 19.1129C19.385 18.8794 19.7033 18.7488 20.0348 18.75C20.3662 18.7512 20.6837 18.8839 20.9172 19.1191L25.886 24.1191C26.1131 24.3555 26.2383 24.6716 26.2345 24.9994C26.2308 25.3272 26.0985 25.6404 25.866 25.8716C25.6336 26.1027 25.3196 26.2333 24.9918 26.2352C24.664 26.237 24.3486 26.1101 24.1135 25.8816L19.1447 20.8816C18.9111 20.6465 18.7803 20.3283 18.7813 19.9968C18.7822 19.6654 18.9147 19.3479 19.1497 19.1141V19.1129Z" fill="white"/>
</svg>
