<svg width="25" height="25" viewBox="0 0 25 25" fill="none" xmlns="http://www.w3.org/2000/svg">
<path d="M20 13.4C20 14.45 19.15 15 18 15H14.65C14.9 15.9 15 16.75 15 17.5C15 20.4 14.2 21 13.5 21C13.05 21 12.7 20.95 12.25 20.7C12.1 20.6 12.05 20.5 12 20.35L11.5 17.65C10.95 16.25 9.6 15 8.5 14.15V7C8.9 7 9.3 6.8 9.8 6.55C10.35 6.3 10.9 6 11.5 6H16.25C17.25 6 18 6.8 18 7.5C18 7.65 18 7.75 17.95 7.85C18.55 8.1 19 8.6 19 9.25C19 9.55 18.95 9.8 18.85 10.05C19.25 10.3 19.6 10.75 19.6 11.25C19.6 11.55 19.45 11.85 19.3 12.1C19.7 12.4 20 12.9 20 13.4ZM18.95 13.4C18.95 12.75 18.3 12.7 18.2 12.4C18.1 12.05 18.6 11.95 18.6 11.35C18.6 10.75 17.85 10.75 17.75 10.4C17.65 10 18 9.9 18 9.3V9.2C17.9 8.7 17.15 8.65 17 8.45C16.85 8.2 17 8.1 17 7.55C17 7.25 16.65 7.05 16.25 7.05H11.5C11.1 7.05 10.7 7.25 10.2 7.5C9.8 7.7 9.4 7.9 9 8V13.25C10.25 14.2 11.85 15.6 12.45 17.35V17.45L12.9 19.95C13.1 20 13.25 20 13.5 20C13.6 20 14 19.4 14 17.5C14 16.75 13.85 15.95 13.6 15H13.5C13.2 15 13 14.8 13 14.5C13 14.2 13.2 14 13.5 14H18C18.5 14 18.95 13.75 18.95 13.4Z" fill="#121113"/>
<path d="M8 6H5C4.45 6 4 6.45 4 7V14C4 14.55 4.45 15 5 15H8C8.55 15 9 14.55 9 14V7C9 6.45 8.55 6 8 6ZM5 14V7H8V14H5Z" fill="#121113"/>
</svg>
