<svg width="12" height="12" viewBox="0 0 12 12" fill="none" xmlns="http://www.w3.org/2000/svg">
<g clip-path="url(#clip0_1224_6)">
<path fill-rule="evenodd" clip-rule="evenodd" d="M6.87983 9.64603C6.64436 9.87269 6.32515 10 5.99234 10C5.65953 10 5.34033 9.87269 5.10485 9.64603L0.367661 5.08217C0.251059 4.96974 0.158577 4.83628 0.0954933 4.6894C0.0324098 4.54253 -3.92688e-05 4.38512 -3.95632e-07 4.22616C3.84775e-05 4.0672 0.0325648 3.9098 0.0957201 3.76296C0.158875 3.61611 0.251423 3.48269 0.368079 3.37032C0.484736 3.25794 0.623218 3.16881 0.775616 3.10801C0.928015 3.04722 1.09135 3.01594 1.25629 3.01598C1.42122 3.01602 1.58454 3.04737 1.73691 3.10823C1.88928 3.1691 2.02771 3.25829 2.14432 3.37072L5.99234 7.07845L9.84037 3.36991C9.95616 3.25426 10.0947 3.16199 10.2479 3.09849C10.4011 3.03498 10.5659 3.00152 10.7326 3.00005C10.8994 2.99858 11.0648 3.02913 11.2191 3.08992C11.3735 3.1507 11.5138 3.24051 11.6317 3.3541C11.7497 3.46769 11.843 3.60279 11.9063 3.75151C11.9695 3.90023 12.0013 4.05959 12 4.2203C11.9986 4.38101 11.964 4.53985 11.8983 4.68755C11.8325 4.83525 11.7369 4.96885 11.617 5.08055L6.87983 9.64603Z" fill="#121113"/>
</g>
<defs>
<clipPath id="clip0_1224_6">
<rect width="12" height="12" fill="white" transform="matrix(-1 0 0 -1 12 12)"/>
</clipPath>
</defs>
</svg>
