<svg width="24" height="24" viewBox="0 0 24 24" fill="none" xmlns="http://www.w3.org/2000/svg">
<path d="M5.0001 6C5.26532 6 5.51968 6.10536 5.70721 6.29289C5.89475 6.48043 6.0001 6.73478 6.0001 7V11C6.0001 11.2652 6.10546 11.5196 6.293 11.7071C6.48053 11.8946 6.73489 12 7.0001 12H16.5901L15.2901 10.71C15.1018 10.5217 14.996 10.2663 14.996 10C14.996 9.7337 15.1018 9.4783 15.2901 9.29C15.4784 9.1017 15.7338 8.99591 16.0001 8.99591C16.2664 8.99591 16.5218 9.1017 16.7101 9.29L19.7101 12.29C19.8011 12.3851 19.8725 12.4972 19.9201 12.62C20.0201 12.8635 20.0201 13.1365 19.9201 13.38C19.8725 13.5028 19.8011 13.6149 19.7101 13.71L16.7101 16.71C16.6171 16.8037 16.5065 16.8781 16.3847 16.9289C16.2628 16.9797 16.1321 17.0058 16.0001 17.0058C15.8681 17.0058 15.7374 16.9797 15.6155 16.9289C15.4937 16.8781 15.3831 16.8037 15.2901 16.71C15.1964 16.617 15.122 16.5064 15.0712 16.3846C15.0204 16.2627 14.9943 16.132 14.9943 16C14.9943 15.868 15.0204 15.7373 15.0712 15.6154C15.122 15.4936 15.1964 15.383 15.2901 15.29L16.5901 14H7.0001C6.20445 14 5.44139 13.6839 4.87878 13.1213C4.31617 12.5587 4.0001 11.7956 4.0001 11V7C4.0001 6.73478 4.10546 6.48043 4.293 6.29289C4.48053 6.10536 4.73489 6 5.0001 6Z" fill="#568CFD"/>
</svg>
