<svg width="24" height="24" viewBox="0 0 24 24" fill="none" xmlns="http://www.w3.org/2000/svg">
<path fill-rule="evenodd" clip-rule="evenodd" d="M15 3.00195C15.1313 3.00195 15.2614 3.02782 15.3827 3.07807C15.504 3.12833 15.6142 3.20199 15.7071 3.29485C15.8 3.3877 15.8736 3.49794 15.9239 3.61927C15.9741 3.7406 16 3.87063 16 4.00195C16 4.13328 15.9741 4.26331 15.9239 4.38464C15.8736 4.50596 15.8 4.6162 15.7071 4.70906C15.6142 4.80192 15.504 4.87558 15.3827 4.92583C15.2614 4.97609 15.1313 5.00195 15 5.00195H6V18.002C6 18.2672 6.10536 18.5215 6.29289 18.7091C6.48043 18.8966 6.73478 19.002 7 19.002H15C15.2652 19.002 15.5196 19.1073 15.7071 19.2948C15.8946 19.4824 16 19.7367 16 20.002C16 20.2672 15.8946 20.5215 15.7071 20.7091C15.5196 20.8966 15.2652 21.002 15 21.002H7C6.20435 21.002 5.44129 20.6859 4.87868 20.1233C4.31607 19.5607 4 18.7976 4 18.002V4.00195C4 3.73674 4.10536 3.48238 4.29289 3.29485C4.48043 3.10731 4.73478 3.00195 5 3.00195H15ZM16.707 8.29495C16.5672 8.1552 16.3891 8.06002 16.1953 8.02142C16.0014 7.98282 15.8005 8.00254 15.6178 8.07808C15.4351 8.15363 15.279 8.28161 15.169 8.44587C15.0591 8.61013 15.0002 8.80329 15 9.00095V11.001H9C8.73478 11.001 8.48043 11.1063 8.29289 11.2938C8.10536 11.4814 8 11.7357 8 12.001C8 12.2662 8.10536 12.5205 8.29289 12.7081C8.48043 12.8956 8.73478 13.001 9 13.001H15V15.001C15 15.1987 15.0587 15.392 15.1686 15.5564C15.2785 15.7208 15.4346 15.849 15.6173 15.9246C15.8 16.0003 16.0011 16.0201 16.195 15.9815C16.389 15.943 16.5671 15.8478 16.707 15.708L19.707 12.708C19.8945 12.5204 19.9998 12.2661 19.9998 12.001C19.9998 11.7358 19.8945 11.4815 19.707 11.294L16.707 8.29495Z" fill="#121113"/>
</svg>
