<svg width="24" height="24" viewBox="0 0 24 24" fill="none" xmlns="http://www.w3.org/2000/svg">
<path d="M2 13.9998V10.2858C2 9.7554 2.21071 9.24669 2.58579 8.87162C2.96086 8.49655 3.46957 8.28584 4 8.28584H6.9C7.09552 8.28579 7.28674 8.22842 7.45 8.12084L13.45 4.16484C13.6008 4.06556 13.7756 4.00893 13.9559 4.00097C14.1362 3.99301 14.3154 4.03401 14.4743 4.11962C14.6332 4.20523 14.766 4.33226 14.8585 4.48723C14.9511 4.64219 15 4.81933 15 4.99984V19.2858C15 19.4663 14.9511 19.6435 14.8585 19.7984C14.766 19.9534 14.6332 20.0804 14.4743 20.166C14.3154 20.2517 14.1362 20.2927 13.9559 20.2847C13.7756 20.2767 13.6008 20.2201 13.45 20.1208L7.45 16.1648C7.28674 16.0572 7.09552 15.9999 6.9 15.9998H4C3.46957 15.9998 2.96086 15.7891 2.58579 15.414C2.21071 15.039 2 14.5303 2 13.9998Z" stroke="white" stroke-width="1.5"/>
<mask id="path-2-inside-1_1228_6" fill="white">
<path d="M17.779 16.6728C18.7422 16.3061 19.5685 15.6508 20.1449 14.7964C20.7213 13.9421 21.0196 12.9305 20.999 11.9001C20.9784 10.8697 20.6399 9.87087 20.0299 9.04023C19.4198 8.2096 18.568 7.58777 17.5909 7.25985L17.1883 8.45952C17.918 8.70444 18.5543 9.16889 19.01 9.78931C19.4656 10.4097 19.7184 11.1558 19.7338 11.9254C19.7492 12.695 19.5264 13.4506 19.0959 14.0887C18.6653 14.7268 18.0482 15.2163 17.3288 15.4902L17.779 16.6728Z"/>
</mask>
<path d="M17.779 16.6728C18.7422 16.3061 19.5685 15.6508 20.1449 14.7964C20.7213 13.9421 21.0196 12.9305 20.999 11.9001C20.9784 10.8697 20.6399 9.87087 20.0299 9.04023C19.4198 8.2096 18.568 7.58777 17.5909 7.25985L17.1883 8.45952C17.918 8.70444 18.5543 9.16889 19.01 9.78931C19.4656 10.4097 19.7184 11.1558 19.7338 11.9254C19.7492 12.695 19.5264 13.4506 19.0959 14.0887C18.6653 14.7268 18.0482 15.2163 17.3288 15.4902L17.779 16.6728Z" fill="white" stroke="white" stroke-width="4" mask="url(#path-2-inside-1_1228_6)"/>
</svg>
