<svg width="12" height="12" viewBox="0 0 12 12" fill="none" xmlns="http://www.w3.org/2000/svg">
<g clip-path="url(#clip0_1224_2)">
<path fill-rule="evenodd" clip-rule="evenodd" d="M5.12017 2.35397C5.35564 2.12731 5.67485 2 6.00766 2C6.34047 2 6.65967 2.12731 6.89515 2.35397L11.6323 6.91783C11.7489 7.03026 11.8414 7.16372 11.9045 7.3106C11.9676 7.45747 12 7.61488 12 7.77384C12 7.9328 11.9674 8.0902 11.9043 8.23704C11.8411 8.38389 11.7486 8.51731 11.6319 8.62968C11.5153 8.74206 11.3768 8.83119 11.2244 8.89199C11.072 8.95278 10.9087 8.98406 10.7437 8.98402C10.5788 8.98398 10.4155 8.95263 10.2631 8.89177C10.1107 8.8309 9.97229 8.74171 9.85568 8.62928L6.00766 4.92155L2.15963 8.63009C2.04384 8.74574 1.9053 8.83801 1.75211 8.90151C1.59892 8.96502 1.43414 8.99848 1.26738 8.99995C1.10063 9.00142 0.935242 8.97087 0.78087 8.91008C0.626497 8.8493 0.486232 8.75949 0.368259 8.6459C0.250285 8.53231 0.156966 8.39721 0.0937467 8.24849C0.030527 8.09977 -0.00132752 7.94041 4.23787e-05 7.7797C0.00141228 7.61899 0.0359791 7.46015 0.101725 7.31245C0.167472 7.16475 0.263081 7.03115 0.382975 6.91945L5.12017 2.35397Z" fill="#121113"/>
</g>
<defs>
<clipPath id="clip0_1224_2">
<rect width="12" height="12" fill="white"/>
</clipPath>
</defs>
</svg>
