<svg width="25" height="25" viewBox="0 0 25 25" fill="none" xmlns="http://www.w3.org/2000/svg">
<path d="M3.12533 12.5C1.97949 12.5 1.04199 11.5625 1.04199 10.4167V5.20833C1.04199 4.0625 1.97949 3.125 3.12533 3.125H11.4587C12.6045 3.125 13.542 4.0625 13.542 5.20833V10.4167C13.542 11.5625 12.6045 12.5 11.4587 12.5H9.37533V15.625L6.25033 12.5H3.12533ZM21.8753 18.75C23.0212 18.75 23.9587 17.8125 23.9587 16.6667V11.4583C23.9587 10.3125 23.0212 9.375 21.8753 9.375H15.6253V10.4167C15.6253 12.7083 13.7503 14.5833 11.4587 14.5833V16.6667C11.4587 17.8125 12.3962 18.75 13.542 18.75H15.6253V21.875L18.7503 18.75H21.8753Z" fill="#121113"/>
</svg>
