<svg width="14" height="14" viewBox="0 0 14 14" fill="none" xmlns="http://www.w3.org/2000/svg">
<path d="M8.24741 7L11.739 3.50842C11.9047 3.343 11.9979 3.11853 11.9981 2.88439C11.9983 2.65025 11.9055 2.42562 11.7401 2.25991C11.5747 2.0942 11.3502 2.00099 11.1161 2.00078C10.8819 2.00057 10.6573 2.09339 10.4916 2.2588L7 5.75038L3.50842 2.2588C3.34271 2.09309 3.11796 2 2.88361 2C2.64926 2 2.42451 2.09309 2.2588 2.2588C2.09309 2.42451 2 2.64926 2 2.88361C2 3.11796 2.09309 3.34271 2.2588 3.50842L5.75038 7L2.2588 10.4916C2.09309 10.6573 2 10.882 2 11.1164C2 11.3507 2.09309 11.5755 2.2588 11.7412C2.42451 11.9069 2.64926 12 2.88361 12C3.11796 12 3.34271 11.9069 3.50842 11.7412L7 8.24962L10.4916 11.7412C10.6573 11.9069 10.882 12 11.1164 12C11.3507 12 11.5755 11.9069 11.7412 11.7412C11.9069 11.5755 12 11.3507 12 11.1164C12 10.882 11.9069 10.6573 11.7412 10.4916L8.24741 7Z" fill="#121113"/>
</svg>
