<svg width="24" height="24" viewBox="0 0 24 24" fill="none" xmlns="http://www.w3.org/2000/svg">
<g clip-path="url(#clip0_1251_25)">
<path fill-rule="evenodd" clip-rule="evenodd" d="M8.29279 12.7064C8.10532 12.5188 8 12.2645 8 11.9994C8 11.7342 8.10532 11.4799 8.29279 11.2924L13.9498 5.63537C14.042 5.53986 14.1524 5.46367 14.2744 5.41126C14.3964 5.35886 14.5276 5.33127 14.6604 5.33012C14.7932 5.32896 14.9248 5.35426 15.0477 5.40454C15.1706 5.45483 15.2823 5.52908 15.3762 5.62297C15.4701 5.71686 15.5443 5.82852 15.5946 5.95141C15.6449 6.07431 15.6702 6.20599 15.669 6.33877C15.6679 6.47155 15.6403 6.60277 15.5879 6.72477C15.5355 6.84677 15.4593 6.95712 15.3638 7.04937L10.4138 11.9994L15.3638 16.9494C15.5459 17.138 15.6467 17.3906 15.6445 17.6528C15.6422 17.915 15.537 18.1658 15.3516 18.3512C15.1662 18.5366 14.9154 18.6418 14.6532 18.644C14.391 18.6463 14.1384 18.5455 13.9498 18.3634L8.29279 12.7064Z" fill="#121113"/>
</g>
<defs>
<clipPath id="clip0_1251_25">
<rect width="24" height="24" fill="white"/>
</clipPath>
</defs>
</svg>
