<svg width="24" height="24" viewBox="0 0 24 24" fill="none" xmlns="http://www.w3.org/2000/svg">
<g clip-path="url(#clip0_1251_29)">
<path fill-rule="evenodd" clip-rule="evenodd" d="M15.7072 11.2936C15.8947 11.4812 16 11.7355 16 12.0006C16 12.2658 15.8947 12.5201 15.7072 12.7076L10.0502 18.3646C9.95797 18.4601 9.84762 18.5363 9.72562 18.5887C9.60361 18.6411 9.47239 18.6687 9.33961 18.6699C9.20684 18.671 9.07516 18.6457 8.95226 18.5955C8.82936 18.5452 8.71771 18.4709 8.62382 18.377C8.52993 18.2831 8.45567 18.1715 8.40539 18.0486C8.35511 17.9257 8.32981 17.794 8.33096 17.6612C8.33212 17.5285 8.3597 17.3972 8.41211 17.2752C8.46452 17.1532 8.5407 17.0429 8.63621 16.9506L13.5862 12.0006L8.63621 7.05063C8.45406 6.86203 8.35326 6.60943 8.35554 6.34723C8.35782 6.08504 8.46299 5.83422 8.64839 5.64882C8.8338 5.46341 9.08462 5.35824 9.34681 5.35596C9.60901 5.35368 9.86161 5.45447 10.0502 5.63663L15.7072 11.2936Z" fill="#121113"/>
</g>
<defs>
<clipPath id="clip0_1251_29">
<rect width="24" height="24" fill="white" transform="matrix(-1 0 0 -1 24 24)"/>
</clipPath>
</defs>
</svg>
